<svg xmlns="http://www.w3.org/2000/svg" width="60" height="60" viewBox="0 0 60 60" fill="none">
    <path d="M33.8429 47.3989C33.8179 47.3989 33.7929 47.3979 33.7679 47.3969C33.7459 47.3979 33.7229 47.3989 33.7009 47.3989H13.4889C12.8819 47.3989 12.3889 46.9059 12.3889 46.299V43.586C12.3889 42.979 12.8809 42.486 13.4889 42.486C14.0969 42.486 14.5889 42.979 14.5889 43.586V45.199H32.7429V38.027C32.7429 37.328 33.4589 36.795 34.1089 36.96C34.1299 36.959 34.1509 36.958 34.1719 36.958H45.1089V23.812H29.8859V28.974C29.8859 29.581 29.3939 30.074 28.7859 30.074C28.1779 30.074 27.6859 29.581 27.6859 28.974V27.083H23.2819C22.6749 27.083 22.1819 26.59 22.1819 25.983C22.1819 25.376 22.6739 24.883 23.2819 24.883H27.6859V22.712C27.6859 22.105 28.1779 21.612 28.7859 21.612H45.1079V14.801H29.8859V17.895C29.8859 18.502 29.3939 18.995 28.7859 18.995C28.1779 18.995 27.6859 18.502 27.6859 17.895V14.801H14.5889V24.883H17.9489C18.5559 24.883 19.0489 25.376 19.0489 25.983C19.0489 26.59 18.5569 27.083 17.9489 27.083H14.5889V36.966H27.6869V34.233C27.6869 33.626 28.1789 33.133 28.7869 33.133C29.3949 33.133 29.8869 33.626 29.8869 34.233V38.058C29.8869 38.691 29.3499 39.203 28.7099 39.155C28.6589 39.162 28.6069 39.166 28.5549 39.166H13.4889C12.8819 39.166 12.3889 38.673 12.3889 38.066C12.3889 38.064 12.3889 38.061 12.3889 38.059V13.701C12.3889 13.094 12.8809 12.601 13.4889 12.601H46.2079C46.8149 12.601 47.3079 13.094 47.3079 13.701V38.058C47.3079 38.665 46.8159 39.158 46.2079 39.158H34.9419V46.2999C34.9419 46.9069 34.4499 47.3989 33.8429 47.3989Z"
          fill="#E4B156"></path>
</svg>