<svg xmlns="http://www.w3.org/2000/svg" xmlns:xlink="http://www.w3.org/1999/xlink" version="1.1" width="256"
     height="256" viewBox="0 0 256 256" xml:space="preserve">
<g transform="translate(128 128) scale(0.72 0.72)" style="">
	<g style="stroke: none; stroke-width: 0; stroke-dasharray: none; stroke-linecap: butt; stroke-linejoin: miter; stroke-miterlimit: 10; fill: none; fill-rule: nonzero; opacity: 1;"
       transform="translate(-175.05 -175.05000000000004) scale(3.89 3.89)">
	<rect x="24.32" y="37.79" rx="0" ry="0" width="41.36" height="2"
          style="stroke: none; stroke-width: 1; stroke-dasharray: none; stroke-linecap: butt; stroke-linejoin: miter; stroke-miterlimit: 10; fill: #d40100; fill-rule: nonzero; opacity: 1;"
          transform=" matrix(1 0 0 1 0 0) "/>
        <path d="M 32.966 55.284 c -0.078 0 -0.155 -0.003 -0.232 -0.009 c 0 0 0 0 0 -0.001 l -10.512 -0.872 c -1.259 -0.104 -2.312 -1.043 -2.559 -2.281 l -0.322 -1.619 c -0.189 -0.951 0.113 -1.924 0.809 -2.6 c 0.696 -0.677 1.678 -0.949 2.623 -0.734 l 10.834 2.49 c 1.302 0.298 2.211 1.44 2.211 2.776 c 0 0.794 -0.335 1.559 -0.919 2.097 C 34.372 55.017 33.678 55.284 32.966 55.284 z M 32.898 53.281 c 0.244 0.026 0.47 -0.059 0.646 -0.222 s 0.274 -0.385 0.274 -0.625 c 0 -0.398 -0.271 -0.738 -0.659 -0.827 l -10.835 -2.49 c -0.405 -0.091 -0.682 0.122 -0.782 0.219 s -0.322 0.366 -0.241 0.775 l 0.322 1.618 c 0.074 0.369 0.388 0.649 0.763 0.681 L 32.898 53.281 z"
              style="stroke: none; stroke-width: 1; stroke-dasharray: none; stroke-linecap: butt; stroke-linejoin: miter; stroke-miterlimit: 10; fill: #d40100; fill-rule: nonzero; opacity: 1;"
              transform=" matrix(1 0 0 1 0 0) " stroke-linecap="round"/>
        <path d="M 56.446 55.284 c -0.712 0 -1.405 -0.268 -1.933 -0.753 c -0.584 -0.538 -0.919 -1.303 -0.919 -2.097 c 0 -1.337 0.909 -2.479 2.211 -2.776 l 10.834 -2.49 c 0.944 -0.216 1.928 0.058 2.623 0.733 c 0.696 0.677 0.999 1.648 0.81 2.601 L 69.75 52.12 c -0.247 1.239 -1.299 2.178 -2.559 2.282 L 56.68 55.274 c -0.001 0.001 -0.001 0.001 -0.001 0.001 C 56.602 55.281 56.523 55.284 56.446 55.284 z M 56.597 54.278 h 0.01 H 56.597 z M 67.284 49.095 c -0.062 0 -0.128 0.007 -0.197 0.022 l -10.834 2.49 c -0.388 0.089 -0.658 0.429 -0.658 0.827 c 0 0.24 0.098 0.463 0.274 0.625 c 0.176 0.162 0.4 0.251 0.646 0.222 l 10.511 -0.871 c 0.376 -0.031 0.689 -0.312 0.764 -0.681 l 0.322 -1.618 c 0.081 -0.408 -0.143 -0.678 -0.242 -0.775 C 67.787 49.256 67.583 49.095 67.284 49.095 z"
              style="stroke: none; stroke-width: 1; stroke-dasharray: none; stroke-linecap: butt; stroke-linejoin: miter; stroke-miterlimit: 10; fill: #d40100; fill-rule: nonzero; opacity: 1;"
              transform=" matrix(1 0 0 1 0 0) " stroke-linecap="round"/>
        <path d="M 51.242 58.663 H 38.758 c -0.552 0 -1 -0.447 -1 -1 s 0.448 -1 1 -1 h 12.484 c 0.553 0 1 0.447 1 1 S 51.795 58.663 51.242 58.663 z"
              style="stroke: none; stroke-width: 1; stroke-dasharray: none; stroke-linecap: butt; stroke-linejoin: miter; stroke-miterlimit: 10; fill: #d40100; fill-rule: nonzero; opacity: 1;"
              transform=" matrix(1 0 0 1 0 0) " stroke-linecap="round"/>
        <path d="M 27.821 70.819 h -7.993 c -1.551 0 -2.813 -1.262 -2.813 -2.812 v -4.215 c 0 -0.553 0.448 -1 1 -1 h 11.617 c 0.552 0 1 0.447 1 1 v 4.215 C 30.633 69.558 29.372 70.819 27.821 70.819 z M 19.016 64.793 v 3.215 c 0 0.447 0.364 0.812 0.813 0.812 h 7.993 c 0.448 0 0.812 -0.364 0.812 -0.812 v -3.215 H 19.016 z"
              style="stroke: none; stroke-width: 1; stroke-dasharray: none; stroke-linecap: butt; stroke-linejoin: miter; stroke-miterlimit: 10; fill: #d40100; fill-rule: nonzero; opacity: 1;"
              transform=" matrix(1 0 0 1 0 0) " stroke-linecap="round"/>
        <path d="M 70.172 70.819 H 62.18 c -1.551 0 -2.813 -1.262 -2.813 -2.812 v -4.215 c 0 -0.553 0.447 -1 1 -1 h 11.617 c 0.553 0 1 0.447 1 1 v 4.215 C 72.984 69.558 71.723 70.819 70.172 70.819 z M 61.367 64.793 v 3.215 c 0 0.447 0.364 0.812 0.813 0.812 h 7.992 c 0.448 0 0.813 -0.364 0.813 -0.812 v -3.215 H 61.367 z"
              style="stroke: none; stroke-width: 1; stroke-dasharray: none; stroke-linecap: butt; stroke-linejoin: miter; stroke-miterlimit: 10; fill: #d40100; fill-rule: nonzero; opacity: 1;"
              transform=" matrix(1 0 0 1 0 0) " stroke-linecap="round"/>
        <path d="M 72.931 64.793 H 58.627 c -1.335 0 -2.598 -0.646 -3.379 -1.729 c -0.406 -0.563 -1.063 -0.899 -1.757 -0.899 H 36.509 c -0.694 0 -1.351 0.336 -1.757 0.899 c -0.781 1.082 -2.044 1.729 -3.379 1.729 H 17.069 L 16.208 49.2 c -0.114 -2.063 0.643 -4.1 2.076 -5.589 l 5.142 -5.339 L 26.56 27.35 c 0.723 -1.876 2.479 -3.079 4.399 -3.079 H 59.04 c 1.921 0 3.678 1.203 4.371 2.994 l 3.163 11.007 l 5.143 5.339 c 1.434 1.489 2.19 3.525 2.075 5.589 L 72.931 64.793 z M 36.509 60.165 h 16.982 c 1.335 0 2.598 0.646 3.379 1.729 c 0.405 0.563 1.063 0.898 1.757 0.898 h 12.411 l 0.758 -13.704 c 0.083 -1.51 -0.471 -3 -1.52 -4.09 h -0.001 l -5.486 -5.698 l -3.271 -11.399 c -0.369 -0.941 -1.376 -1.631 -2.478 -1.631 H 30.959 c -1.101 0 -2.107 0.69 -2.505 1.716 L 25.21 39.301 l -5.486 5.698 c -1.049 1.09 -1.603 2.58 -1.52 4.09 l 0.757 13.704 h 12.411 c 0.694 0 1.351 -0.336 1.757 -0.898 C 33.911 60.812 35.174 60.165 36.509 60.165 z"
              style="stroke: none; stroke-width: 1; stroke-dasharray: none; stroke-linecap: butt; stroke-linejoin: miter; stroke-miterlimit: 10; fill: #d40100; fill-rule: nonzero; opacity: 1;"
              transform=" matrix(1 0 0 1 0 0) " stroke-linecap="round"/>
        <path d="M 51.242 55.504 H 38.758 c -0.552 0 -1 -0.447 -1 -1 s 0.448 -1 1 -1 h 12.484 c 0.553 0 1 0.447 1 1 S 51.795 55.504 51.242 55.504 z"
              style="stroke: none; stroke-width: 1; stroke-dasharray: none; stroke-linecap: butt; stroke-linejoin: miter; stroke-miterlimit: 10; fill: #d40100; fill-rule: nonzero; opacity: 1;"
              transform=" matrix(1 0 0 1 0 0) " stroke-linecap="round"/>
        <path d="M 21.157 30.16 H 6.581 c -0.552 0 -1 -0.448 -1 -1 s 0.448 -1 1 -1 h 14.576 c 0.552 0 1 0.448 1 1 S 21.709 30.16 21.157 30.16 z"
              style="stroke: none; stroke-width: 1; stroke-dasharray: none; stroke-linecap: butt; stroke-linejoin: miter; stroke-miterlimit: 10; fill: #d40100; fill-rule: nonzero; opacity: 1;"
              transform=" matrix(1 0 0 1 0 0) " stroke-linecap="round"/>
        <path d="M 14.349 42.304 c -0.067 0 -0.134 -0.003 -0.201 -0.008 l -8.236 -0.683 c -1.083 -0.09 -1.987 -0.897 -2.2 -1.962 l -0.253 -1.268 c -0.163 -0.818 0.097 -1.653 0.695 -2.235 c 0.6 -0.582 1.443 -0.816 2.255 -0.63 l 8.489 1.951 c 1.119 0.256 1.901 1.238 1.901 2.387 c 0 0.683 -0.288 1.34 -0.791 1.802 C 15.556 42.074 14.96 42.304 14.349 42.304 z M 5.855 37.454 c -0.15 0 -0.254 0.076 -0.308 0.128 c -0.065 0.063 -0.169 0.201 -0.127 0.409 l 0.253 1.268 c 0.039 0.195 0.205 0.343 0.404 0.36 l 8.236 0.683 h 0 c 0.167 0.009 0.287 -0.068 0.341 -0.117 c 0.054 -0.05 0.145 -0.159 0.145 -0.331 c 0 -0.21 -0.143 -0.39 -0.349 -0.438 l -8.489 -1.951 C 5.924 37.458 5.888 37.454 5.855 37.454 z"
              style="stroke: none; stroke-width: 1; stroke-dasharray: none; stroke-linecap: butt; stroke-linejoin: miter; stroke-miterlimit: 10; fill: #d40100; fill-rule: nonzero; opacity: 1;"
              transform=" matrix(1 0 0 1 0 0) " stroke-linecap="round"/>
        <path d="M 9.325 54.478 H 3.063 c -1.334 0 -2.42 -1.086 -2.42 -2.421 v -3.302 c 0 -0.553 0.448 -1 1 -1 h 9.103 c 0.552 0 1 0.447 1 1 v 3.302 C 11.745 53.392 10.66 54.478 9.325 54.478 z M 2.642 49.755 v 2.302 c 0 0.232 0.188 0.421 0.42 0.421 h 6.263 c 0.231 0 0.42 -0.188 0.42 -0.421 v -2.302 H 2.642 z"
              style="stroke: none; stroke-width: 1; stroke-dasharray: none; stroke-linecap: butt; stroke-linejoin: miter; stroke-miterlimit: 10; fill: #d40100; fill-rule: nonzero; opacity: 1;"
              transform=" matrix(1 0 0 1 0 0) " stroke-linecap="round"/>
        <path d="M 12.109 49.755 H 1.642 c -0.531 0 -0.969 -0.415 -0.999 -0.944 L 0.009 37.332 C -0.083 35.655 0.532 34 1.696 32.791 l 3.992 -4.145 l 2.441 -8.507 c 0.614 -1.594 2.037 -2.569 3.655 -2.569 h 22.004 c 1.594 0 3.051 0.999 3.626 2.484 c 0.199 0.515 -0.057 1.094 -0.572 1.293 c -0.515 0.201 -1.094 -0.056 -1.293 -0.572 c -0.279 -0.721 -0.987 -1.206 -1.761 -1.206 H 11.785 c -0.786 0 -1.478 0.474 -1.761 1.207 l -2.481 8.66 c -0.045 0.157 -0.128 0.3 -0.241 0.418 l -4.164 4.324 c -0.781 0.81 -1.192 1.919 -1.13 3.043 l 0.582 10.534 h 9.521 c 0.475 0 0.924 -0.229 1.201 -0.614 c 0.323 -0.448 0.949 -0.548 1.396 -0.227 c 0.448 0.323 0.549 0.948 0.226 1.396 C 14.28 49.215 13.225 49.755 12.109 49.755 z"
              style="stroke: none; stroke-width: 1; stroke-dasharray: none; stroke-linecap: butt; stroke-linejoin: miter; stroke-miterlimit: 10; fill: #d40100; fill-rule: nonzero; opacity: 1;"
              transform=" matrix(1 0 0 1 0 0) " stroke-linecap="round"/>
        <path d="M 83.42 30.16 H 68.844 c -0.553 0 -1 -0.448 -1 -1 s 0.447 -1 1 -1 H 83.42 c 0.553 0 1 0.448 1 1 S 83.973 30.16 83.42 30.16 z"
              style="stroke: none; stroke-width: 1; stroke-dasharray: none; stroke-linecap: butt; stroke-linejoin: miter; stroke-miterlimit: 10; fill: #d40100; fill-rule: nonzero; opacity: 1;"
              transform=" matrix(1 0 0 1 0 0) " stroke-linecap="round"/>
        <path d="M 75.651 42.304 c -0.611 0 -1.207 -0.23 -1.659 -0.646 c -0.503 -0.462 -0.791 -1.12 -0.791 -1.803 c 0 -1.149 0.781 -2.13 1.9 -2.387 l 8.489 -1.951 c 0.813 -0.187 1.655 0.049 2.255 0.63 c 0.599 0.582 0.858 1.417 0.695 2.235 l -0.253 1.268 c -0.211 1.064 -1.115 1.872 -2.198 1.962 l -8.237 0.683 C 75.785 42.301 75.718 42.304 75.651 42.304 z M 84.146 37.454 c -0.034 0 -0.069 0.003 -0.107 0.012 l -8.489 1.951 c -0.205 0.047 -0.348 0.227 -0.348 0.438 c 0 0.172 0.091 0.281 0.146 0.331 s 0.167 0.131 0.34 0.117 l 0 0 l 8.237 -0.683 c 0.198 -0.017 0.364 -0.165 0.403 -0.359 l 0.253 -1.269 c 0.041 -0.208 -0.063 -0.346 -0.128 -0.409 C 84.398 37.53 84.295 37.454 84.146 37.454 z"
              style="stroke: none; stroke-width: 1; stroke-dasharray: none; stroke-linecap: butt; stroke-linejoin: miter; stroke-miterlimit: 10; fill: #d40100; fill-rule: nonzero; opacity: 1;"
              transform=" matrix(1 0 0 1 0 0) " stroke-linecap="round"/>
        <path d="M 86.938 54.478 h -6.263 c -1.334 0 -2.42 -1.086 -2.42 -2.421 v -3.302 c 0 -0.553 0.447 -1 1 -1 h 9.103 c 0.553 0 1 0.447 1 1 v 3.302 C 89.357 53.392 88.271 54.478 86.938 54.478 z M 80.255 49.755 v 2.302 c 0 0.232 0.188 0.421 0.42 0.421 h 6.263 c 0.231 0 0.42 -0.188 0.42 -0.421 v -2.302 H 80.255 z"
              style="stroke: none; stroke-width: 1; stroke-dasharray: none; stroke-linecap: butt; stroke-linejoin: miter; stroke-miterlimit: 10; fill: #d40100; fill-rule: nonzero; opacity: 1;"
              transform=" matrix(1 0 0 1 0 0) " stroke-linecap="round"/>
        <path d="M 88.357 49.755 H 77.892 c -1.115 0 -2.171 -0.54 -2.823 -1.444 c -0.323 -0.447 -0.223 -1.072 0.226 -1.396 c 0.446 -0.324 1.072 -0.224 1.396 0.226 c 0.278 0.385 0.728 0.614 1.202 0.614 h 9.52 l 0.583 -10.534 c 0.063 -1.124 -0.35 -2.232 -1.131 -3.043 l -4.164 -4.324 c -0.112 -0.118 -0.195 -0.261 -0.24 -0.418 l -2.511 -8.746 c -0.251 -0.636 -0.959 -1.121 -1.733 -1.121 H 56.212 c -0.774 0 -1.482 0.485 -1.762 1.206 c -0.199 0.515 -0.778 0.771 -1.294 0.572 c -0.515 -0.2 -0.771 -0.779 -0.571 -1.293 c 0.575 -1.486 2.033 -2.484 3.627 -2.484 h 22.003 c 1.594 0 3.052 0.999 3.627 2.484 l 2.471 8.592 l 3.992 4.145 c 1.164 1.21 1.779 2.865 1.686 4.542 l -0.635 11.479 C 89.326 49.34 88.889 49.755 88.357 49.755 z"
              style="stroke: none; stroke-width: 1; stroke-dasharray: none; stroke-linecap: butt; stroke-linejoin: miter; stroke-miterlimit: 10; fill: #d40100; fill-rule: nonzero; opacity: 1;"
              transform=" matrix(1 0 0 1 0 0) " stroke-linecap="round"/>
</g>
</g>
</svg>