<svg xmlns="http://www.w3.org/2000/svg" viewBox="0 0 76.94 76.94">
    <defs>
        <style>
            .cls-1{fill:#fff;}.cls-2,.cls-3,.cls-4{fill:none;}.cls-2{stroke:#1d1d1b;stroke-miterlimit:10;}.cls-3,.cls-4{stroke:#e30613;stroke-width:2px;}.cls-4{stroke-linecap:round;stroke-linejoin:round;}.cls-5{fill:#e30613;}.cls-6{fill:red;}
        </style>
    </defs>
    <title>Asset 29artisan</title>
    <g id="Layer_2" data-name="Layer 2">
        <g id="Layer_1-2" data-name="Layer 1">
            <circle class="cls-1" cx="38.47" cy="38.47" r="37.97"/>
            <circle class="cls-2" cx="38.47" cy="38.47" r="37.97"/>
            <circle class="cls-1" cx="38.26" cy="38.47" r="33.26"/>
            <circle class="cls-3" cx="38.26" cy="38.47" r="33.26"/>
            <path class="cls-4"
                  d="M49.06,17.61l9.86,6.81c1.09.75,1.7,1.69,1,2.63-.85,1.22-1.92.75-2.91.06-1.14-.75-1.57-1.07-2.35-1.61-1.36-.95-2.39-1.66-4.06.85-2,3.1-20.09,28.32-20.09,28.32L28.3,61.29"/>
            <path class="cls-5"
                  d="M51.17,63.77a14.77,14.77,0,0,0-1.38-5.83c-.52.26-1,.52-1.47.73a2.88,2.88,0,0,1-.92.22.75.75,0,0,1-.85-.64,1.59,1.59,0,0,1-.06-.68,3.8,3.8,0,0,0-.44-2.48c-.79-1.72-1.66-3.41-2.5-5.11a2.88,2.88,0,0,0-.23-.34,1.41,1.41,0,0,1-1.91-.58c-.76-.91-1.51-1.84-2.29-2.73a.89.89,0,0,0-.58-.26A3,3,0,0,1,36,44.74q-3.72-5.41-7.43-10.86a.8.8,0,0,0-.79-.45,1.34,1.34,0,0,1-1.32-.83c-.86-1.78-1.72-3.55-2.6-5.32a1.41,1.41,0,0,1,.08-1.38,6.55,6.55,0,0,1-.59-.59c-.13-.16-.18-.39-.31-.55-.61-.72-.4-1.39,0-2.15a2.68,2.68,0,0,1,2.7-1.71c1.53.05,3,.05,4.33,1a4.27,4.27,0,0,1,.93.87,2,2,0,0,0,1.23.76.57.57,0,0,0,.39-.06,1.45,1.45,0,0,1,2.18.42,1.11,1.11,0,0,0,1.13.46c1.29-.11,2.59-.14,3.88-.24a1.3,1.3,0,0,0,.69-.3,1.16,1.16,0,0,1,1.67.05,2.48,2.48,0,0,1,.49,2.57,1.24,1.24,0,0,1-1.9.46,1.32,1.32,0,0,0-.77-.19c-1.07.13-2.14.31-3.21.46a2.17,2.17,0,0,1,0,.76,1.26,1.26,0,0,0,.4,1.36,52.89,52.89,0,0,1,7,10.37,1.81,1.81,0,0,1,.15,1.63c-.07.15.06.43.18.6a50.18,50.18,0,0,1,5.68,9.74c.51,1.15.93,2.34,1.4,3.51a1.73,1.73,0,0,1-.05,1.34,1.35,1.35,0,0,0,0,.84,16.69,16.69,0,0,1,.81,5.61C52.19,63.62,51.56,63.45,51.17,63.77Zm-10-21.71.14.22a59.82,59.82,0,0,1,6.93,11.65c.37.78.86,1.54.27,2.45.63-.54,1-1.31,2-1.35A51.62,51.62,0,0,0,43.7,42.79c-.29-.38-.65-.71-1-1.09.25-.32.65-.66.4-1.25A12.86,12.86,0,0,0,40.92,37a.87.87,0,0,0-.47-.29,5.27,5.27,0,0,0-3.3.77c.67,1,1.28,2,2,2.91.32.44.5.84.14,1.32,0,0,0,0,0,.08,1.69-.62,1.91-.66,2.55-.4Zm-1.27-6.45c-.09-.17-.18-.36-.29-.53-1.24-1.9-2.46-3.82-3.75-5.69a1.57,1.57,0,0,1-.37-1.65A1,1,0,0,0,35,26.4a5.81,5.81,0,0,0-5.11,1l1.07,0a4.47,4.47,0,0,1-.33.69.66.66,0,0,0,.12,1,48.6,48.6,0,0,1,5.52,7,2.77,2.77,0,0,1,.24.72,17,17,0,0,1,1.6-.77C38.68,35.85,39.29,35.76,39.93,35.61ZM25.08,22.22c.87.82,1.69,1.58,2.48,2.36.27.26.5.4.87.19a2.25,2.25,0,0,1,.69-.11l-.84.68.84,1.11a7.09,7.09,0,0,1,5.47-1,1.6,1.6,0,0,0-2-.84.76.76,0,0,1-.36,0c-.67-.31-1.45-.38-2-1.05a6.14,6.14,0,0,0-1.08-.85A4.51,4.51,0,0,0,25.08,22.22Zm15.46,3.4c0-.68-.12-.82-.85-.76l-.9.08L36,25.2l.25.84Zm0-.85a2,2,0,0,1,.37.07,2.73,2.73,0,0,1,.77.29c.12.09.12.35.21.66.2-.53.17-.9-.17-1.18S40.94,24.38,40.54,24.77Z"/>
            <path class="cls-5"
                  d="M30.24,38.87a10.15,10.15,0,0,1-5.14.32,16.68,16.68,0,0,1-11.57-7.88,8.1,8.1,0,0,1-1.28-4.23A5.43,5.43,0,0,1,16,21.71a10.83,10.83,0,0,1,6.3-.19,1.6,1.6,0,0,1,.23.1l-.84,1.79a27.23,27.23,0,0,0-3.06.21,3.16,3.16,0,0,0-2.53,4.66A10.76,10.76,0,0,0,20.23,33a14.42,14.42,0,0,0,7.88,2.77.56.56,0,0,1,.38.21C29.07,36.91,29.63,37.86,30.24,38.87Z"/>
            <path class="cls-5"
                  d="M25.43,32.85a11.34,11.34,0,0,1-5.83-3.8,4.43,4.43,0,0,1-.72-1.4A1.59,1.59,0,0,1,20,25.53a9.31,9.31,0,0,1,2-.17c.32,0,.74.64.58.9A1.5,1.5,0,0,0,22.82,28c.87,1.52,1.73,3.06,2.6,4.58a1.06,1.06,0,0,0,.16.21Z"/>
            <path class="cls-1"
                  d="M41.2,42.06l.64-.67c-.64-.26-.86-.22-2.55.4,0,0-.06-.07,0-.08.36-.48.18-.88-.14-1.32-.67-.94-1.28-1.91-2-2.91a5.27,5.27,0,0,1,3.3-.77.87.87,0,0,1,.47.29,12.86,12.86,0,0,1,2.19,3.45c.25.59-.15.93-.4,1.25.34.38.7.71,1,1.09A51.62,51.62,0,0,1,50.53,55c-1,0-1.36.81-2,1.35.59-.91.1-1.67-.27-2.45a59.82,59.82,0,0,0-6.93-11.65Z"/>
            <path class="cls-1"
                  d="M39.93,35.61c-.64.15-1.25.24-1.83.44a17,17,0,0,0-1.6.77,2.77,2.77,0,0,0-.24-.72,48.6,48.6,0,0,0-5.52-7,.66.66,0,0,1-.12-1A4.47,4.47,0,0,0,31,27.4l-1.07,0a5.81,5.81,0,0,1,5.11-1,1,1,0,0,1,.53,1.34,1.57,1.57,0,0,0,.37,1.65c1.29,1.87,2.51,3.79,3.75,5.69C39.75,35.25,39.84,35.44,39.93,35.61Z"/>
            <path class="cls-1"
                  d="M25.08,22.22a4.51,4.51,0,0,1,4.14.54,6.14,6.14,0,0,1,1.08.85c.51.67,1.29.74,2,1.05a.76.76,0,0,0,.36,0,1.6,1.6,0,0,1,2,.84,7.09,7.09,0,0,0-5.47,1l-.84-1.11.84-.68a2.25,2.25,0,0,0-.69.11c-.37.21-.6.07-.87-.19C26.77,23.8,26,23,25.08,22.22Z"/>
            <path class="cls-1" d="M40.54,25.62,36.22,26,36,25.2l2.82-.26.9-.08C40.42,24.8,40.56,24.94,40.54,25.62Z"/>
            <path class="cls-1"
                  d="M40.54,24.77c.4-.39.8-.47,1.18-.16s.37.65.17,1.18c-.09-.31-.09-.57-.21-.66a2.73,2.73,0,0,0-.77-.29A2,2,0,0,0,40.54,24.77Z"/>
        </g>
    </g>
</svg>